<?xml version="1.0" standalone="no"?><!DOCTYPE svg PUBLIC "-//W3C//DTD SVG 1.1//EN" "http://www.w3.org/Graphics/SVG/1.1/DTD/svg11.dtd"><svg t="1604393217695" class="icon" viewBox="0 0 1024 1024" version="1.1" xmlns="http://www.w3.org/2000/svg" p-id="22923" xmlns:xlink="http://www.w3.org/1999/xlink" width="128" height="128"><defs><style type="text/css"></style></defs><path d="M847.872 240.128v688c0 26.56-21.408 48-48 48h-576c-26.56 0-48-21.44-48-48v-832c0-26.592 21.44-48 48-48h432z" fill="#E9EDED" p-id="22924"></path><path d="M160 768.128v160c0 35.456 28.544 64 64 64h576c35.456 0 64-28.544 64-64v-160H160z" fill="#F45676" p-id="22925"></path><path d="M847.872 240.128h-144c-26.56 0-48-21.44-48-48v-144" fill="#F45676" p-id="22926"></path><path d="M432.256 334.816v0.064a16 16 0 0 0-16.256 16v226.304a16 16 0 0 0 25.28 13.056l159.712-113.184a16 16 0 0 0 0-26.048l-159.744-113.184a16 16 0 0 0-8.992-3.008zM448 381.824l116.128 82.24L448 546.24v-164.416z" fill="#F45676" p-id="22927"></path><path d="M336.128 799.808a16 16 0 0 0-14.432 8.864l-64 128a16 16 0 1 0 28.608 14.336l11.52-23.008h76.352l11.52 23.008a16 16 0 0 0 28.608-14.336l-64-128a16 16 0 0 0-14.176-8.864z m94.56 0a16 16 0 0 0-13.696 21.824l48 128a16 16 0 0 0 30.016 0l48-128a16 16 0 0 0-30.016-11.2L480 898.432l-32.992-88a16 16 0 0 0-14.72-10.624 16 16 0 0 0-1.6 0z m160.96 0.128a16 16 0 0 0-15.776 16.256v127.616a16 16 0 1 0 32 0v-127.616a16 16 0 0 0-16.256-16.256zM336 851.616L358.176 896H313.824l22.176-44.384z" fill="#E9EDED" p-id="22928"></path></svg>