<?xml version="1.0" standalone="no"?><!DOCTYPE svg PUBLIC "-//W3C//DTD SVG 1.1//EN" "http://www.w3.org/Graphics/SVG/1.1/DTD/svg11.dtd"><svg t="1604394365402" class="icon" viewBox="0 0 1024 1024" version="1.1" xmlns="http://www.w3.org/2000/svg" p-id="45123" xmlns:xlink="http://www.w3.org/1999/xlink" width="128" height="128"><defs><style type="text/css"></style></defs><path d="M832.2 127.9v766H192.7v-766h639.5m0-64H192.7c-35.3 0-64 28.7-64 64v766c0 35.3 28.7 64 64 64h639.5c35.3 0 64-28.7 64-64v-766c0-35.4-28.7-64-64-64z" fill="#A3AFD3" p-id="45124"></path><path d="M733.039 824.168v-32h97.9v32z" fill="#8C98A6" p-id="45125"></path><path d="M896.2 958.3H414.5v-176c0-35.3 28.7-64 64-64h417.7c35.3 0 64 28.7 64 64v112c0 35.4-28.7 64-64 64z" fill="#8C9ABF" p-id="45126"></path><path d="M549.2 771c14.2 0 25.4 3.4 33.4 10.2 7.4 6.4 11.2 15 11.2 25.8 0 8-2 14.8-5.8 20.4-3.8 5.2-9.2 9-16.4 11.8 9.4 1.8 16.4 5.6 21.2 11.4 4.6 5.6 7 13.4 7 23 0 14.4-5 25-14.8 31.8-8.4 5.6-20.4 8.4-35.6 8.4h-65.6V771h65.4z m-42 60H543c10 0 17-1.8 21.2-5 4-3.4 6.2-8.8 6.2-16.2 0-6.8-2.2-11.8-6.2-14.8-4.4-3.2-11.2-4.8-20.8-4.8h-36.2V831z m0 63.6H546c8.8 0 15.8-1.4 20.8-4.2 6.4-3.6 9.6-9.2 9.6-17.2 0-8.2-2.4-14-7-17.6-4.8-3.6-12.4-5.4-22.8-5.4h-39.4v44.4zM649.2 771l48.6 112h0.8L747 771h27.4v142.8H751v-98.4h-0.8l-42 98.4H688l-42-98.4h-0.8v98.4h-23.4V771h27.4zM861.6 771c34.4 0 51.8 14.6 51.8 43.8 0 29.4-17.4 44.2-52.2 44.2h-35.4v54.8h-23.4V771h59.2z m-35.8 68h34c10.4 0 18-2 22.8-5.6 4.8-3.8 7.2-10 7.2-18.6 0-8.6-2.6-14.6-7.4-18.2-4.8-3.8-12.4-5.6-22.6-5.6h-34v48z" fill="#FFFFFF" p-id="45127"></path><path d="M684.3 597.6c-6.1 0-12.1-0.3-18.1-0.8-66-5.9-109-41.5-150.5-75.9-36.7-30.4-71.4-59.2-119.3-62.7-64.9-4.7-136.2 39.2-212 130.5l-24.6-20.4c46.3-55.8 92.2-95.7 136.4-118.6 34.7-17.9 69.2-25.8 102.6-23.4 58.1 4.2 98.4 37.6 137.4 69.9 39.5 32.7 76.8 63.7 132.9 68.6 57.4 5.1 118.3-18.9 180.9-71.5l20.6 24.5c-63.1 53.1-125.7 79.8-186.3 79.8z" fill="#A3AFD3" p-id="45128"></path><path d="M687.6 372m-80.1 0a80.1 80.1 0 1 0 160.2 0 80.1 80.1 0 1 0-160.2 0Z" fill="#A3AFD3" p-id="45129"></path></svg>