<?xml version="1.0" standalone="no"?><!DOCTYPE svg PUBLIC "-//W3C//DTD SVG 1.1//EN" "http://www.w3.org/Graphics/SVG/1.1/DTD/svg11.dtd"><svg t="1604392401755" class="icon" viewBox="0 0 1024 1024" version="1.1" xmlns="http://www.w3.org/2000/svg" p-id="3170" xmlns:xlink="http://www.w3.org/1999/xlink" width="128" height="128"><defs><style type="text/css"></style></defs><path d="M696.96 0H190.08a63.36 63.36 0 0 0-63.36 63.36v316.8h570.24a63.36 63.36 0 0 1 63.36 63.36v411.84a63.36 63.36 0 0 1-63.36 63.36H126.72v31.68a63.36 63.36 0 0 0 63.36 63.36H950.4a63.36 63.36 0 0 0 63.36-63.36V316.8L696.96 0z" fill="#EAEAEA" p-id="3171"></path><path d="M696.96 0v253.44a63.36 63.36 0 0 0 63.36 63.36h253.44L696.96 0z" fill="#434854" p-id="3172"></path><path d="M760.32 316.8l253.44 253.44V316.8z" opacity=".1" p-id="3173"></path><path d="M696.96 823.68a31.68 31.68 0 0 1-31.68 31.68H31.68A31.68 31.68 0 0 1 0 823.68V475.2a31.68 31.68 0 0 1 31.68-31.68h633.6a31.68 31.68 0 0 1 31.68 31.68v348.48zM190.4 707.264v-86.112c0-8.032 1.856-14.08 5.6-18.112a19.744 19.744 0 0 1 15.2-6.016c6.4 0 11.424 2.016 15.168 6.048 3.776 4 5.632 10.304 5.632 18.912h42.432c0-19.968-5.536-36.192-16.64-48.672a59.2 59.2 0 0 0-20.16-13.728 67.424 67.424 0 0 0-26.432-4.992c-13.312 0-24.64 2.784-33.92 8.32-9.28 5.536-16.416 12.896-21.408 22.048-3.04 5.536-5.12 11.936-6.24 19.136a156.448 156.448 0 0 0-1.664 23.712v69.472c0 8.608 0.544 16.512 1.664 23.712 1.12 7.2 3.2 13.6 6.24 19.136 4.992 9.152 12.16 16.512 21.44 22.048 9.28 5.536 20.576 8.32 33.888 8.32 9.696 0 18.432-1.664 26.208-4.992 7.776-3.328 14.4-7.904 19.968-13.728 11.36-11.36 17.056-26.336 17.056-44.928H232a38.048 38.048 0 0 1-4.8 14.144c-2.624 4.704-7.968 7.072-16 7.072-6.4 0-11.424-1.792-15.168-5.408-3.776-3.616-5.632-8.736-5.632-15.392z m185.952-91.104h39.936c0-8.608-1.536-16.704-4.576-24.32a61.504 61.504 0 0 0-12.48-19.776 54.656 54.656 0 0 0-18.944-12.896 61.76 61.76 0 0 0-23.904-4.576c-8.608 0-16.64 1.44-24.128 4.384a56.032 56.032 0 0 0-19.552 12.672 61.216 61.216 0 0 0-18.72 44.512c0 14.144 3.84 26.144 11.424 35.968 7.648 9.856 18.112 17.28 31.424 22.272l20.384 7.488c8.032 3.04 13.6 6.656 16.64 10.816a24.64 24.64 0 0 1 4.576 14.976c0 7.2-2.432 12.8-7.296 16.864a25.088 25.088 0 0 1-16.416 6.016c-8.032 0-13.664-2.496-16.864-7.488a40.416 40.416 0 0 1-6.016-16.224h-39.936c0.288 10.56 2.24 19.744 5.824 27.648 3.616 7.936 8.32 14.496 14.144 19.776 11.648 10.816 26.08 16.224 43.264 16.224 9.152 0 17.6-1.664 25.376-4.992 7.776-3.328 14.4-7.904 19.968-13.728 5.536-5.824 9.92-12.544 13.12-20.16 3.2-7.648 4.768-15.904 4.768-24.768 0-12.48-2.976-24-8.96-34.528-5.952-10.56-16.832-18.88-32.64-24.96l-24.96-9.984c-8.032-3.04-13.024-6.432-14.976-10.208a24.608 24.608 0 0 1-2.912-11.424c0-5.536 1.792-10.464 5.408-14.784 3.616-4.288 8.736-6.432 15.392-6.432 5.536 0 10.464 1.792 14.752 5.408 4.32 3.616 6.592 9.024 6.88 16.224zM575.2 557.088h-44.928l-28.288 134.784h-0.832l-28.288-134.784h-44.928L482.848 768h37.44L575.2 557.088z" fill="#037DF3" p-id="3174"></path></svg>