<?xml version="1.0" standalone="no"?><!DOCTYPE svg PUBLIC "-//W3C//DTD SVG 1.1//EN" "http://www.w3.org/Graphics/SVG/1.1/DTD/svg11.dtd"><svg t="1604393353239" class="icon" viewBox="0 0 1024 1024" version="1.1" xmlns="http://www.w3.org/2000/svg" p-id="25884" xmlns:xlink="http://www.w3.org/1999/xlink" width="128" height="128"><defs><style type="text/css"></style></defs><path d="M620.9 67.2H236.5c-30.3 0-54.9 25-54.9 55.9v782.7c0 30.9 24.6 55.9 54.9 55.9h549c30.3 0 54.9-25 54.9-55.9v-615L620.9 67.2z" fill="#398FFF" p-id="25885"></path><path d="M802 925.9H220.1V109.7h379.6v218.9H802z" fill="#FFFFFF" p-id="25886"></path><path d="M802 922.6H220.1V106.4h379.6v218.8H802z" fill="#57A7FF" p-id="25887"></path><path d="M311.9 619.1c28.7 0 50.5 8 65.6 24.2 14.1 15 21 36.7 21 65.1 0 28-7.3 49.8-21.6 65.3-15 16-36.7 24-65.6 24h-64.6V619.1h65.2z m-37.8 155.4h32.4c22.5 0 39.3-5.5 49.8-16.2 10.3-10.8 15.5-27.3 15.5-49.8 0-23-5.2-39.5-15.3-50.1-10.5-10.8-27-16-49.6-16h-32.7v132.1h-0.1zM569.5 642.2c15 16.7 22.5 39 22.5 66.5 0 27.3-7.5 49.3-22.5 66.3-15.8 17.5-37.3 26.3-64.4 26.3-27.3 0-48.8-9-64.2-26.5-15-17-22.3-39-22.3-66 0-27.3 7.3-49.3 22.3-66.3 15.5-18.1 37-26.8 64.2-26.8 27.1-0.1 48.7 8.6 64.4 26.5zM461 658.9c-10.1 12.2-15 28.7-15 49.8 0 20.7 5 37.3 15 49.6 10.5 12.5 25.2 19 44.2 19 19 0 33.8-6.3 44-18.5 10.1-12 15.3-28.7 15.3-50.1 0-21.6-5.2-38.3-15.3-50.5-10.3-12.5-25-18.5-44-18.5-18.9-0.1-33.7 6.2-44.2 19.2zM748.7 631.9c13 10.5 21 25 23.8 43H746c-3-12-8.7-21-17.2-26.8-8.5-5.7-19-8.5-32-8.5-19.3 0-33.8 6.5-43.5 19.8-9.2 12-13.8 28.5-13.8 49.3 0 21.6 4.5 38.1 13.5 49.8 9.5 12.5 24.2 18.8 44.2 18.8 13 0 24-3.3 32.5-9.7 9-7 15.3-17.6 18.8-31.5H775c-4 20.7-13.2 37.1-28 48.8-13.8 11-30.3 16.5-49.6 16.5-29.3 0-51.3-9.5-66-28-13-16-19.3-37.6-19.3-64.6 0-26.5 6.5-48 20-64.8 15-19 36.5-28.2 65.1-28.2 20.7-0.2 38 5.1 51.5 16.1z" fill="#FFFFFF" p-id="25888"></path></svg>