<?xml version="1.0" standalone="no"?><!DOCTYPE svg PUBLIC "-//W3C//DTD SVG 1.1//EN" "http://www.w3.org/Graphics/SVG/1.1/DTD/svg11.dtd"><svg t="1604394279140" class="icon" viewBox="0 0 1024 1024" version="1.1" xmlns="http://www.w3.org/2000/svg" p-id="44505" xmlns:xlink="http://www.w3.org/1999/xlink" width="128" height="128"><defs><style type="text/css"></style></defs><path d="M751.80113 11.570621H210.932429a74.804068 74.804068 0 0 0-74.572655 74.572656v851.713446A74.804068 74.804068 0 0 0 210.932429 1012.429379h708.700565a74.804068 74.804068 0 0 0 74.572656-74.572656V254.032994z" fill="#ECE2F7" p-id="44506"></path><path d="M751.80113 179.344633a74.861921 74.861921 0 0 0 74.572655 74.630508h167.774012L751.80113 11.570621z" fill="#AAA4ED" p-id="44507"></path><path d="M18.223729 624.813559m69.423729 0l569.853107 0q69.423729 0 69.423729 69.423729l0 185.129944q0 69.423729-69.423729 69.423728l-569.853107 0q-69.423729 0-69.423729-69.423728l0-185.129944q0-69.423729 69.423729-69.423729Z" fill="#876DF2" p-id="44508"></path><path d="M76.076836 694.237288h24.298305v176.509831H76.076836z m110.557288 69.423729a53.919096 53.919096 0 0 0-11.165649-36.389605 39.513672 39.513672 0 0 0-31.703503-12.901243 42.406328 42.406328 0 0 0-31.877062 11.570622 45.125424 45.125424 0 0 0-11.570622 32.918418l-3.529039-34.017627a56.522486 56.522486 0 0 1 23.141243-25.51322 68.555932 68.555932 0 0 1 33.381242-7.81017 56.23322 56.23322 0 0 1 31.182825 8.504407 52.067797 52.067797 0 0 1 19.72791 24.58757 101.821469 101.821469 0 0 1 6.71096 39.050848v107.143955h-24.471864z m110.499435 0a53.629831 53.629831 0 0 0-11.223503-36.389605 39.513672 39.513672 0 0 0-31.587796-12.901243 40.844294 40.844294 0 0 0-31.934915 12.554125 51.2 51.2 0 0 0-11.281356 35.406101l-10.355707-25.51322a75.614011 75.614011 0 0 1 23.604068-33.612655 57.853107 57.853107 0 0 1 36.389605-11.570622 61.613559 61.613559 0 0 1 32.744859 8.388701 52.993446 52.993446 0 0 1 20.827118 24.58757 95.284068 95.284068 0 0 1 7.173786 39.050848v107.143955h-24.529718zM356.780113 694.237288h24.471864v248.305537h-24.471864zM400.054237 866.003164a42.811299 42.811299 0 0 1-21.116384-23.141243l2.371978-36.910283a48.828023 48.828023 0 0 0 5.438192 22.215594 44.431186 44.431186 0 0 0 15.678192 17.355932 42.811299 42.811299 0 0 0 23.777627 6.653107 43.968362 43.968362 0 0 0 34.133333-13.306215 52.819887 52.819887 0 0 0 12.0913-36.968135V763.661017a54.266215 54.266215 0 0 0-12.0913-37.662373 43.679096 43.679096 0 0 0-34.191186-13.364068 43.274124 43.274124 0 0 0-23.777627 6.537401 44.48904 44.48904 0 0 0-15.678193 16.950961 46.803164 46.803164 0 0 0-5.438192 21.752768l-3.529039-34.017627a55.596836 55.596836 0 0 1 24.356158-24.703277 78.275254 78.275254 0 0 1 35.463955-7.578757A58.663051 58.663051 0 0 1 469.477966 700.022599a53.167006 53.167006 0 0 1 20.364294 24.58757 98.350282 98.350282 0 0 1 6.942373 38.935142v38.472316a94.069153 94.069153 0 0 1-7.115932 38.414463 53.340565 53.340565 0 0 1-20.942825 24.414012 62.076384 62.076384 0 0 1-32.976271 8.3887 80.99435 80.99435 0 0 1-35.695368-7.231638zM523.686328 812.720452l83.019209-189.295367h25.51322l-80.99435 187.212655h131.44226v21.984181H523.686328z m111.772203-87.589605h23.604068v145.558419h-23.604068z" fill="#FFFFFF" p-id="44509"></path><path d="M622.557288 297.538531L403.525424 171.071638a50.563616 50.563616 0 0 0-75.845424 43.794803v252.933785a50.563616 50.563616 0 0 0 75.845424 43.794802l219.031864-126.466892a50.563616 50.563616 0 0 0 0-87.589605z" fill="#AAA4ED" p-id="44510"></path></svg>