<?xml version="1.0" standalone="no"?><!DOCTYPE svg PUBLIC "-//W3C//DTD SVG 1.1//EN" "http://www.w3.org/Graphics/SVG/1.1/DTD/svg11.dtd"><svg t="1604393517486" class="icon" viewBox="0 0 1024 1024" version="1.1" xmlns="http://www.w3.org/2000/svg" p-id="30241" xmlns:xlink="http://www.w3.org/1999/xlink" width="128" height="128"><defs><style type="text/css"></style></defs><path d="M145.6 0C100.8 0 64 36.8 64 81.6v860.8C64 987.2 100.8 1024 145.6 1024h732.8c44.8 0 81.6-36.8 81.6-81.6V324.8L657.6 0h-512z" fill="#00A1EE" p-id="30242"></path><path d="M960 326.4v16H755.2s-100.8-20.8-99.2-108.8c0 0 4.8 92.8 97.6 92.8H960z" fill="#0089E9" p-id="30243"></path><path d="M657.6 0v233.6c0 25.6 17.6 92.8 97.6 92.8H960L657.6 0z" fill="#FFFFFF" p-id="30244"></path><path d="M313.6 780.8l41.6 62.4c1.6 3.2 1.6 4.8 1.6 6.4 0 6.4-4.8 11.2-11.2 11.2-4.8 0-8-1.6-9.6-4.8L288 784h-38.4v65.6c0 6.4-4.8 11.2-11.2 11.2-6.4 0-12.8-4.8-12.8-11.2V684.8c0-9.6 8-17.6 17.6-17.6H304c35.2 0 59.2 22.4 59.2 57.6s-22.4 54.4-49.6 56z m-64-92.8v73.6h51.2c22.4 0 38.4-14.4 38.4-36.8 0-20.8-16-36.8-38.4-36.8h-51.2z m280 0h-52.8v161.6c0 6.4-4.8 11.2-11.2 11.2-8 0-12.8-4.8-12.8-11.2V688h-51.2c-6.4 0-11.2-3.2-11.2-9.6 0-6.4 4.8-11.2 11.2-11.2h128c6.4 0 9.6 4.8 9.6 11.2 0 6.4-3.2 9.6-9.6 9.6z m164.8 0h-92.8v62.4h91.2c4.8 0 9.6 4.8 9.6 11.2 0 6.4-4.8 11.2-9.6 11.2h-91.2v76.8c0 6.4-6.4 11.2-12.8 11.2s-11.2-4.8-11.2-11.2V684.8c0-9.6 6.4-17.6 16-17.6h100.8c6.4 0 9.6 4.8 9.6 11.2 0 6.4-3.2 9.6-9.6 9.6z" fill="#FFFFFF" p-id="30245"></path></svg>