<?xml version="1.0" standalone="no"?><!DOCTYPE svg PUBLIC "-//W3C//DTD SVG 1.1//EN" "http://www.w3.org/Graphics/SVG/1.1/DTD/svg11.dtd"><svg t="1604394827057" class="icon" viewBox="0 0 1024 1024" version="1.1" xmlns="http://www.w3.org/2000/svg" p-id="51555" xmlns:xlink="http://www.w3.org/1999/xlink" width="128" height="128"><defs><style type="text/css"></style></defs><path d="M923.136 969.557333H193.024v-909.653333h521.386667l208.725333 207.701333z" fill="#7CCDFF" p-id="51556"></path><path d="M912.896 253.952l2.56 671.914667c0 15.530667-12.458667 27.989333-27.989333 27.989333H237.909333c-15.530667 0-27.989333-12.458667-27.989333-27.989333V96.938667c0-15.530667 12.458667-27.989333 27.989333-27.989334l493.397334-1.024-38.912-39.936H239.274667c-36.352 0-65.706667 29.354667-65.706667 65.706667v835.584c0 36.352 29.354667 65.706667 65.706667 65.706667h646.826666c36.352 0 65.706667-29.354667 65.706667-65.706667V293.888l-38.912-39.936z" fill="#4191FB" p-id="51557"></path><path d="M692.394667 222.72c0 39.424 31.914667 71.338667 71.338666 71.338667h188.245334L692.394667 27.989333v194.730667z" fill="#C7E2FF" p-id="51558"></path><path d="M557.568 482.304H158.72c-50.346667 0-91.136-40.789333-91.136-91.136v-60.245333c0-50.346667 40.789333-91.136 91.136-91.136h398.848c50.346667 0 91.136 40.789333 91.136 91.136v60.245333c0 50.346667-40.789333 91.136-91.136 91.136z" fill="#4191FB" p-id="51559"></path><path d="M109.568 287.573333h40.789333l14.677334 87.210667 21.504-87.210667h40.618666l21.504 87.04 14.677334-87.04h40.618666l-30.72 155.818667h-42.154666l-24.405334-98.133333-24.064 97.962666H140.458667l-30.890667-155.648zM403.456 417.621333h-48.810667l-6.826666 25.770667h-43.861334l52.224-155.818667h46.933334l52.224 155.818667h-45.056l-6.826667-25.770667z m-8.874667-33.792l-15.36-55.978666-15.189333 55.978666h30.549333zM444.757333 287.573333h44.885334l31.232 112.128 30.890666-112.128h43.52l-51.541333 155.818667h-46.592l-52.394667-155.818667z" fill="#FFFFFF" p-id="51560"></path><path d="M714.752 723.285333v-148.48c0-2.730667-0.170667-5.461333 0.341333-8.192 0.682667-4.266667 3.754667-7.168 9.728-7.68 6.144-0.512 10.069333 2.048 11.605334 6.144 1.194667 3.072 1.536 6.485333 1.536 9.728v296.96c0 2.901333-0.170667 5.973333-1.194667 8.874667-1.536 4.437333-5.290667 7.338667-11.946667 6.826667-6.485333-0.512-9.728-3.754667-9.898666-8.362667-0.170667-2.730667-0.170667-5.461333-0.170667-8.192v-147.626667zM698.538667 722.602667v122.88c0 2.901333 0.170667 6.144-1.024 8.874666-1.536 3.584-5.290667 5.973333-10.922667 5.802667-5.12-0.170667-8.533333-2.218667-9.557333-5.802667-1.024-3.413333-1.536-6.997333-1.536-10.581333-0.170667-80.896 0-161.792 0-242.688 0-3.242667 0.341333-6.656 1.536-9.728 1.536-3.925333 5.461333-6.656 11.605333-6.144 5.973333 0.512 9.216 3.242667 9.728 7.68 0.341333 2.730667 0.341333 5.461333 0.341333 8.192-0.170667 40.618667-0.170667 81.066667-0.170666 121.514667zM659.797333 722.432c0 25.941333 0.170667 51.882667-0.170666 77.994667 0 6.485333 0.853333 13.994667-11.776 15.018666-8.021333 0.682667-12.8-4.608-12.8-14.677333-0.170667-51.882667 0-103.936 0-155.818667 0-1.024 0-2.218667 0.170666-3.242666 1.194667-5.632 3.242667-11.605333 12.629334-11.434667 9.557333 0.170667 11.605333 5.973333 11.605333 11.776 0.341333 26.794667 0.341333 53.589333 0.341333 80.384zM814.762667 723.456v77.994667c0 2.730667 0 5.461333-0.853334 8.192-1.194667 3.413333-4.437333 5.632-9.386666 5.973333s-8.533333-1.536-10.922667-4.608c-2.218667-2.901333-2.218667-6.314667-2.218667-9.557333v-155.989334-1.706666c0.341333-6.314667 1.706667-13.312 12.117334-13.312 10.922667 0 11.434667 6.997333 11.434666 13.312-0.170667 26.624-0.170667 53.077333-0.170666 79.701333zM854.186667 723.114667c0 19.968 0.170667 39.936 0 59.733333 0 10.24-5.12 16.384-12.8 15.530667-11.946667-1.536-11.776-8.874667-11.776-15.36-0.170667-39.765333-0.170667-79.701333 0-119.637334 0-10.410667 4.608-16.042667 12.288-16.042666 8.021333 0 12.288 5.290667 12.288 15.872 0.170667 20.138667 0 39.936 0 59.904zM520.362667 723.285333v-61.44c0-2.730667 0-5.461333 0.682666-8.192 1.024-3.413333 4.266667-5.802667 9.216-6.144s8.704 1.365333 11.093334 4.437334c2.56 3.242667 2.389333 6.826667 2.389333 10.410666v123.050667c-0.170667 6.485333-2.048 12.970667-12.629333 12.970667s-10.922667-6.485333-10.922667-12.629334c0.341333-20.821333 0.170667-41.642667 0.170667-62.464zM582.144 723.968v46.762667c0 2.730667 0 5.461333-1.024 8.192-1.536 3.925333-5.461333 6.656-11.434667 6.656-5.461333-0.170667-8.874667-2.901333-10.24-6.656-1.024-2.56-1.024-5.461333-1.024-8.192v-94.378667-4.096c0.341333-5.802667 3.242667-10.922667 11.776-10.922667 8.704 0 11.605333 5.12 11.605334 10.922667 0.341333 17.237333 0.341333 34.474667 0.341333 51.712zM752.981333 723.456v-42.666667c0-5.973333 2.048-11.605333 11.605334-11.605333 9.728-0.170667 11.946667 5.461333 11.946666 11.434667 0.170667 28.501333 0 56.832 0 85.333333 0 5.973333-2.218667 11.434667-11.776 11.605333-9.898667 0.170667-11.776-5.461333-11.776-11.434666v-42.666667zM620.373333 723.285333v42.496c0 5.802667-1.024 11.776-11.093333 11.776-9.557333 0-12.117333-5.802667-12.288-11.434666-0.341333-28.330667-0.341333-56.661333 0-85.162667 0-6.144 2.901333-12.117333 13.141333-11.776 9.728 0.341333 10.24 6.656 10.24 12.288v41.813333zM504.149333 722.944v36.864c0 5.632-1.536 10.922667-10.752 11.093333-9.045333 0.170667-11.946667-5.12-12.117333-10.581333-0.341333-25.088-0.341333-50.176 0-75.434667 0-5.461333 3.072-10.922667 12.117333-10.752 9.216 0.170667 10.922667 5.461333 10.922667 11.093334-0.341333 12.458667-0.170667 25.088-0.170667 37.717333zM411.306667 713.045333c8.704 0.512 13.141333 4.266667 13.312 10.069334 0.170667 5.461333-4.266667 9.728-12.117334 9.728-7.68 0-12.288-3.925333-12.458666-9.557334-0.170667-5.461333 3.242667-9.386667 11.264-10.24zM465.749333 723.285333c-0.682667 5.973333-5.12 9.728-12.629333 9.557334-8.021333-0.170667-12.8-4.437333-12.629333-10.24 0.170667-5.461333 4.608-9.386667 12.458666-9.216 8.362667 0 12.458667 4.096 12.8 9.898666zM892.928 723.114667c-0.682667 5.802667-4.608 9.898667-12.288 9.557333-7.338667-0.170667-12.458667-4.096-12.458667-9.728-0.170667-5.290667 3.754667-9.898667 11.776-9.898667 8.021333 0.341333 12.117333 4.266667 12.970667 10.069334z" fill="#4191FB" p-id="51561"></path></svg>