<?xml version="1.0" standalone="no"?><!DOCTYPE svg PUBLIC "-//W3C//DTD SVG 1.1//EN" "http://www.w3.org/Graphics/SVG/1.1/DTD/svg11.dtd"><svg t="1604393415253" class="icon" viewBox="0 0 1024 1024" version="1.1" xmlns="http://www.w3.org/2000/svg" p-id="27152" xmlns:xlink="http://www.w3.org/1999/xlink" width="128" height="128"><defs><style type="text/css"></style></defs><path d="M704 0H192a64 64 0 0 0-64 64v320h576a64 64 0 0 1 64 64v416a64 64 0 0 1-64 64H128v32a64 64 0 0 0 64 64h768a64 64 0 0 0 64-64V320z" fill="#EAEAEA" p-id="27153"></path><path d="M704 0v256a64 64 0 0 0 64 64h256z" fill="#434854" p-id="27154"></path><path d="M768 320l256 256V320H768z" opacity=".1" p-id="27155"></path><path d="M704 832a32 32 0 0 1-32 32H32a32 32 0 0 1-32-32V480a32 32 0 0 1 32-32h640a32 32 0 0 1 32 32z" fill="#009688" p-id="27156"></path><path d="M512 640a32 32 0 0 1 0-64h48a16 16 0 0 0 0-32h-48a64 64 0 0 0 0 128 32 32 0 0 1 0 64h-48a16 16 0 0 0 0 32h48a64 64 0 0 0 0-128z m-112 96h-80V560a16 16 0 0 0-32 0v192a16 16 0 0 0 16 16h96a16 16 0 0 0 0-32z m-146.88 8.32l-57.6-91.84 52.8-84.16a15.36 15.36 0 0 0-6.08-21.76 18.56 18.56 0 0 0-23.68 5.76l-42.88 68.8-42.88-68.8a18.56 18.56 0 0 0-23.68-5.76 15.36 15.36 0 0 0-6.4 21.76l53.12 84.16-57.6 91.84a15.36 15.36 0 0 0 6.4 21.76A17.92 17.92 0 0 0 128 760l47.68-75.84L224 760a18.56 18.56 0 0 0 23.68 6.08 15.36 15.36 0 0 0 5.44-21.76z" fill="#FFFFFF" p-id="27157"></path></svg>